<?xml version="1.0" encoding="utf-8"?>
<!-- Generator: Adobe Illustrator 26.4.1, SVG Export Plug-In . SVG Version: 6.00 Build 0)  -->
<svg version="1.1" id="图层_1" xmlns="http://www.w3.org/2000/svg" xmlns:xlink="http://www.w3.org/1999/xlink" x="0px" y="0px"
	 viewBox="0 0 512 512" style="enable-background:new 0 0 512 512;" xml:space="preserve">
<style type="text/css">
	.st0{stroke:#000000;stroke-width:2;stroke-miterlimit:10;}
</style>
<path class="st0" d="M93.4,187.2c50.9,0.9,96.6-44.2,95.2-95.8c-1.4,50.8,44,96.9,95.3,95.8c-51.4-1.1-96.7,45.2-95.3,95.8
	C190,231.6,144.3,186.2,93.4,187.2L93.4,187.2z M267.7,111.1c21.5,0.2,37.9-20.8,37.3-41.8c-0.6,20.6,15.7,42,37.3,41.8
	c-21.6-0.3-37.9,21.2-37.3,41.8C305.6,132,289.2,110.9,267.7,111.1z M269.8,253.1c38.9,0.3,68.8-37.8,67.6-75.8
	c-1.1,37.4,28.5,76.2,67.7,75.8c-39.3-0.5-68.8,38.6-67.7,75.8C338.6,291,308.7,252.7,269.8,253.1L269.8,253.1z"/>
<path d="M454.5,398.9c0.2,19.3,10,30.2,28,35.5c5.8,1.3,4.8,9.6-1.7,8.1c-148.9-3.5-303.1,3.9-449.6-2.5c-2-11.8,29.5-1.1,31.7-41.1
	c57.6-0.8,115.6,1.7,173.1-1c10-2.3,15.2,11.9,22.5,17.9c5.3-5.8,9.8-10.2,14.5-15.9c1.7-2.3,3.8-2.6,6.5-2.3
	C337.9,400.8,396.2,398,454.5,398.9"/>
<path d="M449.7,387.3c-54.2,0.5-108.5,0.9-162.8,1.4c55.5-10.6,109.7-26,162.3-46.7C451.2,346.7,451.5,380.1,449.7,387.3"/>
<path d="M228.8,388.7c-54.3-0.5-108.6-0.9-163.3-1.4v-45.9C119.1,362.5,173.3,378.1,228.8,388.7"/>
<path d="M414.8,283.6c-1.2,19.5-2.5,39-3.8,58.9c-45.9,14.2-91.5,28.3-137.2,42.4C327.4,360.5,372.6,321,414.8,283.6"/>
<path d="M245,385.8c-46.4-14.4-92.8-28.7-139.7-43.2c-1.3-19.9-2.7-39.6-4.1-61.1C142.8,324.8,192.9,359.6,245,385.8"/>
</svg>
